<?xml version="1.0" encoding="UTF-8"?>
<svg xmlns="http://www.w3.org/2000/svg" xmlns:xlink="http://www.w3.org/1999/xlink" width="3000" height="3000" viewBox="0 0 3000 3000">
<path fill-rule="nonzero" fill="rgb(100%, 100%, 100%)" fill-opacity="1" d="M 8.238281 0 L 2991.761719 0 C 2996.320312 0 3000 3.679688 3000 8.238281 L 3000 2991.761719 C 3000 2996.324219 2996.320312 3000 2991.761719 3000 L 8.238281 3000 C 3.675781 3000 0 2996.324219 0 2991.761719 L 0 8.238281 C 0 3.679688 3.675781 0 8.238281 0 Z M 8.238281 0 "/>
<path fill-rule="nonzero" fill="rgb(100%, 0%, 30.979919%)" fill-opacity="1" d="M 2147.839844 1183.558594 L 2147.839844 1415.28125 C 2135.378906 1415.28125 2120.429688 1417.769531 2105.480469 1417.769531 C 1993.359375 1417.769531 1888.699219 1375.410156 1808.96875 1308.140625 L 1808.96875 1801.5 C 1808.96875 1901.160156 1776.578125 1995.851562 1719.269531 2070.597656 C 1639.539062 2177.742188 1509.960938 2250 1362.960938 2250 C 1203.488281 2250 1063.949219 2165.28125 986.710938 2040.699219 C 1107.828125 2034.363281 1179.558594 2141.289062 1296.671875 2141.289062 C 1441.191406 2141.289062 1561.410156 2060.925781 1641.140625 1951.289062 C 1695.960938 1876.539062 1709.480469 1821.488281 1707.191406 1719.359375 L 1694.800781 1167.070312 C 1774.539062 1236.839844 1838.46875 1225.351562 1953.089844 1225.351562 C 1968.039062 1225.351562 2015.140625 1280.289062 2030.089844 1277.800781 L 2073.089844 1176.078125 C 2095.519531 1181.058594 2115.449219 1183.558594 2137.878906 1183.558594 Z M 2147.839844 1183.558594 "/>
<path fill-rule="nonzero" fill="rgb(100%, 0%, 30.979919%)" fill-opacity="1" d="M 1425.25 1355.480469 L 1425.25 1612.121094 C 1407.808594 1607.140625 1387.878906 1604.648438 1370.429688 1604.648438 C 1260.800781 1604.648438 1171.101562 1696.839844 1171.101562 1808.96875 C 1171.101562 1833.890625 1176.078125 1856.308594 1183.558594 1878.738281 C 1072.800781 1921.390625 1068.429688 1756.21875 1068.429688 1688.941406 C 1068.429688 1576.820312 1161.511719 1493.070312 1271.140625 1493.070312 C 1291.078125 1493.070312 1316.960938 1495.570312 1334.410156 1500.550781 L 1314.769531 1355.378906 L 1367.941406 1352.988281 C 1387.859375 1352.089844 1407.808594 1352.988281 1425.25 1355.480469 Z M 1425.25 1355.480469 "/>
<path fill-rule="nonzero" fill="rgb(100%, 0%, 30.979919%)" fill-opacity="1" d="M 1846.339844 999.171875 C 1771.929688 1003.640625 1696.890625 909.558594 1733.5 847.179688 L 1811.460938 847.179688 L 1811.460938 882.058594 C 1816.441406 921.929688 1828.898438 961.789062 1846.339844 999.171875 Z M 1846.339844 999.171875 "/>
<path fill-rule="nonzero" fill="rgb(0%, 96.875%, 93.75%)" fill-opacity="1" d="M 1352.988281 1268.269531 L 1352.988281 1375.691406 C 1113.789062 1383.160156 964.929688 1556.109375 964.929688 1797.808594 C 964.929688 1885.019531 1040.019531 1963.558594 989.203125 2035.714844 C 904.484375 1953.488281 852.160156 1838.871094 852.160156 1709.300781 C 852.160156 1462.621094 1051.5 1263.289062 1295.679688 1263.289062 C 1315.609375 1263.289062 1335.550781 1265.78125 1352.988281 1268.269531 Z M 1352.988281 1268.269531 "/>
<path fill-rule="nonzero" fill="rgb(0%, 96.875%, 93.75%)" fill-opacity="1" d="M 1751.660156 847.179688 L 1624.25 896.160156 L 1618.761719 1803.898438 C 1618.078125 1916.03125 1480.070312 2050.453125 1370.429688 2050.453125 C 1283.21875 2050.453125 1210.960938 1958.46875 1183.558594 1878.738281 C 1215.941406 1901.160156 1255.808594 1916.109375 1298.171875 1916.109375 C 1407.808594 1916.109375 1497.511719 1826.410156 1497.511719 1714.28125 L 1497.511719 750 L 1739.199219 750 L 1739.199219 754.980469 C 1739.199219 764.949219 1739.199219 774.921875 1741.691406 784.878906 C 1741.691406 804.820312 1746.679688 827.238281 1751.660156 847.179688 Z M 1751.660156 847.179688 "/>
<path fill-rule="nonzero" fill="rgb(0%, 96.875%, 93.75%)" fill-opacity="1" d="M 2075.578125 1086.378906 L 2075.578125 1176.078125 C 2012.941406 1253.5 1826.691406 1115.75 1843.859375 999.171875 C 1906.140625 1056.480469 1985.878906 1088.871094 2075.578125 1086.378906 Z M 2075.578125 1086.378906 "/>
<path fill-rule="nonzero" fill="rgb(0%, 0%, 0%)" fill-opacity="1" d="M 2075.578125 1176.078125 L 2075.578125 1328.070312 C 2063.121094 1330.558594 2048.171875 1330.558594 2033.21875 1330.558594 C 1921.101562 1330.558594 1816.441406 1288.210938 1736.710938 1220.929688 L 1736.710938 1714.28125 C 1736.710938 1813.949219 1704.320312 1908.640625 1647.011719 1983.390625 C 1564.789062 2093.023438 1437.710938 2162.789062 1293.191406 2162.789062 C 1176.078125 2162.789062 1069.78125 2119.246094 990.046875 2044.496094 C 947.6875 1974.730469 921.925781 1891.191406 921.925781 1803.980469 C 921.925781 1562.289062 1099.449219 1361.660156 1352.988281 1352.988281 L 1352.988281 1522.429688 C 1335.550781 1517.441406 1315.609375 1514.949219 1298.171875 1514.949219 C 1188.539062 1514.949219 1098.839844 1607.140625 1098.839844 1719.269531 C 1098.839844 1786.539062 1131.230469 1843.851562 1183.558594 1878.738281 C 1210.960938 1955.980469 1286.011719 2012.898438 1370.730469 2012.898438 C 1480.359375 2012.898438 1569.769531 1919.210938 1569.769531 1807.078125 L 1569.769531 847.179688 L 1751.660156 847.179688 C 1769.101562 906.980469 1801.5 959.300781 1846.339844 999.171875 C 1891.191406 1088.871094 1975.910156 1153.648438 2075.578125 1176.078125 Z M 2075.578125 1176.078125 "/>
</svg>
